<?xml version="1.0" standalone="no"?><!DOCTYPE svg PUBLIC "-//W3C//DTD SVG 1.1//EN" "http://www.w3.org/Graphics/SVG/1.1/DTD/svg11.dtd"><svg class="icon" width="200px" height="200.00px" viewBox="0 0 1024 1024" version="1.1" xmlns="http://www.w3.org/2000/svg"><path fill="#ffffff" d="M977.176857 179.841982L849.274127 51.939252c-30.696655-35.812764-71.625529-56.277201-117.670512-51.161092h-511.610919c-40.928874 0-71.625529 30.696655-71.625529 71.625529v312.082661h71.625529V87.752017c0-5.116109 0-15.348328 5.116109-15.348328H741.835834V256.58362c0 20.464437 15.348328 35.812764 35.812764 35.812765h168.831604v639.513649c0 10.232218-5.116109 15.348328-15.348328 15.348328H225.108805c-10.232218 0-5.116109-5.116109-5.116109-15.348328v-138.134948H148.367167v153.483276c0 40.928874 30.696655 71.625529 66.509419 71.625529h736.719725c40.928874 0 71.625529-30.696655 71.625529-71.625529V328.209149c0-66.50942-10.232218-107.438293-46.044983-148.367167z m-158.599385 40.928874V128.68089l92.089965 92.089966H818.577472zM731.603615 369.138023H35.812764c-20.464437 5.116109-35.812764 25.580546-35.812764 46.044982V768.19454c0 20.464437 15.348328 40.928874 35.812764 46.044983h695.790851c20.464437 0 35.812764-20.464437 35.812765-40.928874v-358.127644c0-20.464437-15.348328-40.928874-35.812765-46.044982z m-455.333718 317.19877l-15.348328-40.928874H199.528259l-15.348328 40.928874h-46.044983L204.644368 497.040753h51.161092l66.50942 189.29604h-46.044983z m214.876586-81.857747c-15.348328 10.232218-30.696655 15.348328-51.161092 15.348327h-20.464437v66.50942h-40.928873V497.040753h66.509419c46.044983 0 71.625529 20.464437 71.625529 61.39331-5.116109 15.348328-15.348328 30.696655-25.580546 46.044983z m133.018839 81.857747h-51.161092V497.040753h51.161092v189.29604zM230.224914 527.737408c0 5.116109 0 10.232218-5.116109 15.348327L204.644368 604.479046h51.161092l-20.464437-66.50942s0-5.116109-5.116109-10.232218z m204.644368 0h-20.464437v61.39331h15.348328c20.464437 0 35.812764-10.232218 35.812764-30.696655s-10.232218-30.696655-30.696655-30.696655zM782.764707 92.868126v168.831603H972.060748l-189.296041-189.29604z" /></svg>