<?xml version="1.0" standalone="no"?><!DOCTYPE svg PUBLIC "-//W3C//DTD SVG 1.1//EN" "http://www.w3.org/Graphics/SVG/1.1/DTD/svg11.dtd"><svg class="icon" width="200px" height="200.00px" viewBox="0 0 1024 1024" version="1.1" xmlns="http://www.w3.org/2000/svg"><path fill="#ffffff" d="M350.08 412.16c6.912 8.108 10.156 17.068 9.728 26.88-0.34 9.132-3.584 16.768-9.728 22.912L219.008 592.253 350.08 722.432c6.316 6.141 9.728 13.952 10.24 23.421 0.512 10.327-2.9 19.116-10.24 26.371-10.068 7.337-20.268 10.708-30.592 10.11-9.3-0.51-17.068-3.884-23.296-10.11l-158.08-157.056c-7.252-7.252-10.624-15.404-10.112-24.448 0.512-8.108 3.884-15.276 10.112-21.504l158.08-157.056c6.144-6.06 14.464-9.26 24.96-9.6 11.092-0.428 20.736 2.772 28.928 9.6z m181.248 15.36c3.924-9.728 10.836-16.94 20.739-21.632 10.068-4.692 19.84-5.164 29.309-1.408 9.815 3.84 17.068 10.708 21.76 20.608 4.695 9.984 5.164 19.712 1.41 29.184L488.96 753.024c-3.924 9.728-10.836 16.937-20.736 21.63-10.068 4.694-19.884 5.163-29.44 1.41-9.728-3.927-16.94-10.796-21.632-20.61-4.78-9.982-5.248-19.71-1.408-29.182L531.328 427.52z m409.6 512.512V256.128H83.456v683.904h857.472zM896 596.864c0.596 10.068-2.772 18.729-10.112 25.981L731.776 776.064c-7.337 7.252-16.809 10.58-28.416 9.981-10.836-0.512-19.369-3.84-25.6-9.981-5.716-7.68-8.576-16.471-8.576-26.37 0-9.898 2.857-17.706 8.576-23.422l131.072-130.304-131.072-126.08c-17.492-16.468-20.052-33.152-7.68-50.048 5.972-8.108 15.191-12.116 27.648-12.032 12.204 0.172 22.231 4.18 30.08 12.032l158.08 156.928c6.228 4.096 9.6 10.796 10.112 20.096zM960 0c17.751 0 32.852 6.316 45.312 18.944 12.541 12.544 18.816 27.732 18.816 45.568v892.672c0 17.833-6.231 33.021-18.688 45.568-12.544 12.631-27.689 18.941-45.44 18.941H64.128c-17.748 0-32.852-6.269-45.312-18.816C6.272 990.25 0 975.017 0 957.184V64.512c0-17.836 6.228-33.024 18.688-45.568C31.232 6.316 46.38 0 64.128 0H960z" /></svg>