<?xml version="1.0" standalone="no"?><!DOCTYPE svg PUBLIC "-//W3C//DTD SVG 1.1//EN" "http://www.w3.org/Graphics/SVG/1.1/DTD/svg11.dtd"><svg class="icon" width="200px" height="200.00px" viewBox="0 0 1024 1024" version="1.1" xmlns="http://www.w3.org/2000/svg"><path fill="#ffffff" d="M865.392459 157.253321c23.31613 0 42.500482 3.834822 57.675935 11.540307 15.119133 7.705484 27.161193 17.32582 36.049379 28.866127 8.954746 11.509587 15.175452 24.01756 18.66724 37.503437 3.486668 13.465398 5.227442 25.963131 5.227442 37.503437 0 5.411759-0.168957 9.620336-0.573431 12.702529-0.409594 3.051474-0.578551 5.785513-0.578551 8.053639l0 6.942616-76.865407 0 0 605.871232c0 15.416089-3.087314 30.238266-9.3029 44.481893-6.220707 14.187307-15.175452 26.746479-26.807918 37.503437-11.627346 10.751839-25.814653 19.414749-42.500482 25.922171-16.69095 6.579101-35.870182 9.830253-57.624736 9.830253L249.378659 1023.9744c-20.182737 0-39.193012-3.082194-57.102503-9.246581-17.842932-6.164388-33.131023-14.827298-45.98715-25.99385-12.789568-11.094874-22.911656-24.590991-30.228027-40.350115-7.388049-15.815443-11.105113-33.658375-11.105113-53.661915L104.955866 300.370534 32.790548 300.370534c-0.814068-0.778228-1.162223-2.6982-1.162223-5.780393-0.819188-3.839942-1.167342-15.759124-1.167342-35.762664 0-9.99921 2.324445-21.160643 6.978455-33.489418 4.64889-12.287816 11.627346-23.659165 20.930246-34.00653 9.3029-10.413924 21.33984-19.076834 36.105698-25.99385 14.765859-6.917016 32.214557-10.372964 52.387054-10.372964l103.663085 0L250.525522 84.576011c0-20.02914 6.983575-37.150163 20.935366-51.398909 14.00811-14.218027 31.047214-21.33984 51.276031-21.33984l364.497573 0c27.150953 0 45.98715 7.121813 56.457393 21.33984 10.460003 14.243626 15.748884 31.36465 15.748884 51.398909l0 71.515087c16.286476 0.788468 33.724934 1.167342 52.381934 1.167342L865.392459 157.258441 865.392459 157.253321zM322.747159 157.253321l364.497573 0L687.244731 84.576011 322.747159 84.576011 322.747159 157.253321zM286.64658 887.815163c24.826508 0 37.267921-15.815443 37.267921-47.33369L323.914501 304.988705 251.697985 304.988705l0 535.492768c0 16.163598 2.498523 28.087899 7.557007 35.762664C264.318595 883.9701 273.442298 887.815163 286.64658 887.815163L286.64658 887.815163zM506.711119 886.65294c13.199162 0 22.153908-3.665865 26.807918-10.987355 4.64889-7.275411 6.968215-19.020515 6.968215-35.184112L540.487253 304.988705 468.275856 304.988705l0 535.492768C468.275856 871.241971 481.131983 886.65294 506.711119 886.65294L506.711119 886.65294zM725.679995 884.333615c13.956911 0 23.259811-3.609546 27.908701-10.941276 4.705209-7.32149 7.029655-19.066594 7.029655-35.230192L760.618351 304.988705l-73.373619 0 0 533.173442C687.249851 868.978965 700.039419 884.333615 725.679995 884.333615L725.679995 884.333615z" /></svg>