<?xml version="1.0" standalone="no"?><!DOCTYPE svg PUBLIC "-//W3C//DTD SVG 1.1//EN" "http://www.w3.org/Graphics/SVG/1.1/DTD/svg11.dtd"><svg class="icon" width="16px" height="16.00px" viewBox="0 0 1024 1024" version="1.1" xmlns="http://www.w3.org/2000/svg"><path fill="#ffffff" d="M463.659089 647.857426q-2.027723 11.152475-5.069307 17.235644t-14.194059 13.180198q-26.360396 16.221782-56.776238 26.360396t-58.29703 22.30495-48.665347 31.936634-25.853465 56.269307q-2.027723 11.152475-2.534653 21.79802t-1.520792 19.770297q-1.013861 2.027723-2.027723 3.548515t-2.027723 3.548515q-39.540594-3.041584-80.09505-7.09703t-74.518812-9.124752-57.283168-10.138614-29.40198-10.138614q-9.124752-7.09703-13.687129-42.582178t3.548515-92.261386q5.069307-31.429703 25.853465-48.158416t49.172277-26.360396 58.29703-17.742574 53.227723-22.30495q18.249505-12.166337 27.881188-22.30495t13.687129-20.784158 4.055446-21.79802-1.013861-24.332673q-2.027723-20.277228-13.687129-31.936634t-25.853465-23.825743q-8.110891-5.069307-13.687129-16.221782t-9.631683-22.30495q-4.055446-12.166337-8.110891-27.374257-6.083168-2.027723-12.166337-6.083168-5.069307-4.055446-10.645545-12.166337t-10.645545-22.30495-4.055446-26.867327 5.069307-21.79802q4.055446-11.152475 11.152475-18.249505-1.013861-32.443564 3.041584-65.90099 4.055446-27.374257 13.180198-58.80396t27.374257-56.776238q16.221782-24.332673 36.49901-39.540594t41.061386-23.825743 42.075248-11.659406 41.568317-3.041584q50.693069 0 91.247525 21.291089t60.831683 45.623762q13.180198 17.235644 16.728713 31.936634t9.631683 33.964356q-19.263366 11.152475-41.061386 32.950495t-38.019802 44.10297q-20.277228 28.388119-30.415842 62.859406t-15.207921 63.873267q-5.069307 35.485149-5.069307 70.970297-8.110891 9.124752-12.166337 20.277228-4.055446 10.138614-5.069307 23.825743t4.055446 29.908911q5.069307 17.235644 11.152475 26.360396t11.152475 14.194059q6.083168 6.083168 12.166337 8.110891 4.055446 16.221782 8.110891 30.415842 4.055446 12.166337 9.631683 24.839604t13.687129 18.756436q7.09703 6.083168 11.152475 10.138614t6.590099 7.60396 3.041584 9.631683 2.534653 16.221782zM1004.047208 834.407921q4.055446 14.194059 6.590099 34.471287t2.534653 41.061386-3.041584 39.033663-9.124752 27.374257q-4.055446 6.083168-23.825743 12.166337t-49.172277 11.152475-64.887129 9.631683-71.477228 7.60396-69.449505 5.069307-58.80396 2.027723-58.29703-2.027723-68.435644-5.069307-69.956436-6.590099-63.366337-8.110891-48.665347-9.124752-24.839604-8.617822q-8.110891-7.09703-13.180198-42.582178t3.041584-91.247525q5.069307-32.443564 25.853465-48.665347t49.172277-26.360396 58.29703-17.742574 53.227723-22.811881q18.249505-12.166337 27.881188-22.30495t14.194059-20.277228 4.562376-21.291089-1.013861-25.346535q-2.027723-20.277228-14.194059-31.936634t-26.360396-22.811881q-7.09703-6.083168-12.673267-17.235644t-9.631683-22.30495q-4.055446-12.166337-8.110891-27.374257-6.083168-2.027723-12.166337-6.083168-5.069307-4.055446-10.645545-12.166337t-10.645545-22.30495-4.055446-26.867327 5.069307-20.784158q4.055446-10.138614 11.152475-18.249505-1.013861-32.443564 3.041584-65.90099 4.055446-28.388119 12.673267-59.310891t26.867327-57.283168q16.221782-24.332673 36.49901-39.540594t41.568317-23.825743 42.582178-11.659406 40.554455-3.041584q51.706931 0 92.261386 21.291089t59.817822 45.623762q22.30495 27.374257 32.950495 61.338614t15.714851 63.366337q5.069307 34.471287 4.055446 68.942574 5.069307 4.055446 9.124752 11.152475 3.041584 6.083168 5.576238 15.714851t0.506931 23.825743q-2.027723 18.249505-8.110891 29.40198t-12.166337 17.235644q-7.09703 7.09703-16.221782 9.124752-4.055446 15.207921-8.110891 27.374257-4.055446 11.152475-10.138614 22.30495t-13.180198 16.221782q-8.110891 7.09703-14.70099 12.166337t-11.659406 10.645545-8.617822 12.673267-5.576238 17.235644q-2.027723 13.180198-1.520792 26.867327t6.590099 26.867327 19.770297 25.346535 38.019802 21.291089q21.291089 9.124752 47.144554 15.714851t49.679208 15.714851 42.582178 23.318812 26.867327 36.49901z" /></svg>