<?xml version="1.0" standalone="no"?><!DOCTYPE svg PUBLIC "-//W3C//DTD SVG 1.1//EN" "http://www.w3.org/Graphics/SVG/1.1/DTD/svg11.dtd"><svg class="icon" width="200px" height="200.00px" viewBox="0 0 1024 1024" version="1.1" xmlns="http://www.w3.org/2000/svg"><path fill="#333333" d="M512 0C229.248 0 0 229.248 0 512s229.248 512 512 512 512-229.248 512-512S794.752 0 512 0z m-54.528 191.488c0-15.104 5.248-28.416 15.744-39.424 21.248-22.656 56.832-22.016 77.568 0 10.496 11.008 15.744 24.192 15.744 39.296v268.544c0 15.104-5.376 28.288-15.872 39.04-10.496 10.88-23.68 16.384-39.04 16.384-14.976 0-27.776-5.504-38.4-16.384-10.496-10.752-15.872-23.936-15.872-39.04V191.488z m347.52 438.656c-16.768 39.424-39.552 74.368-68.096 103.68-28.544 29.312-62.464 52.992-100.864 70.272-38.656 17.28-80.384 25.984-124.288 25.984-43.392 0-84.992-8.704-123.52-25.984-38.528-17.28-72.576-40.96-101.12-70.144-28.8-29.44-51.712-64.384-68.224-103.936-16.512-39.552-24.832-82.432-24.832-127.488 0-25.728 2.944-51.328 8.832-76.032 5.888-24.832 14.464-48.64 25.216-70.784 10.752-22.272 24.448-43.52 40.576-62.976 15.872-19.328 34.048-36.992 53.888-52.48 12.544-9.472 26.496-13.056 41.088-10.752 14.592 2.432 26.496 9.728 35.584 22.016 9.088 12.288 12.544 26.24 10.24 41.344-2.304 14.976-9.472 27.392-21.248 36.736-27.52 20.608-48.64 46.208-63.232 76.032-14.464 29.952-21.888 62.592-21.888 97.024 0 29.568 5.504 57.728 16.256 83.84 10.88 26.24 25.984 49.28 44.8 68.736 18.944 19.456 41.344 35.072 66.56 46.336 50.56 22.784 111.488 22.656 161.92 0 25.472-11.392 47.872-27.008 66.56-46.336 18.944-19.456 34.048-42.624 45.184-68.736 11.008-25.984 16.64-54.144 16.64-83.712 0-34.944-7.936-68.352-23.552-99.328-15.616-31.104-37.76-56.96-65.92-76.928-12.416-8.704-20.096-20.864-22.656-36.096-2.56-14.976 0.512-29.056 8.832-41.728 8.704-12.544 20.608-20.096 35.328-22.784 14.848-2.688 28.8 0.512 41.216 9.216 21.504 15.872 40.704 33.664 57.088 53.248 16.512 19.712 30.848 41.216 42.496 63.872 11.776 22.784 20.864 47.36 27.008 72.832 6.144 25.216 9.216 51.456 9.216 77.824 0.128 44.8-8.448 87.68-25.088 127.232z" /></svg>