<?xml version="1.0" standalone="no"?><!DOCTYPE svg PUBLIC "-//W3C//DTD SVG 1.1//EN" "http://www.w3.org/Graphics/SVG/1.1/DTD/svg11.dtd"><svg class="icon" width="200px" height="200.00px" viewBox="0 0 1024 1024" version="1.1" xmlns="http://www.w3.org/2000/svg"><path fill="#333333" d="M758.840889 340.461037c-14.942815 0-30.037333 1.441185-44.86637 4.323556-118.215111 22.812444-200.912593 131.621926-201.08326 264.590222 0.474074 46.78163 16.554667 96.06637 45.24563 138.733037 44.638815 66.37037 89.429333 132.645926 134.238815 198.940444l33.109333 49.01926c8.51437 12.648296 20.764444 19.911111 33.564444 19.911111 12.762074 0 24.993185-7.224889 33.583408-19.816297l54.613333-80.782222c37.641481-55.713185 75.320889-111.388444 112.696889-167.253333 39.727407-59.410963 53.532444-125.553778 41.054815-196.608-21.390222-122.311111-123.221333-211.057778-242.157037-211.057778zM926.340741 723.247407a42116.266667 42116.266667 0 0 1-112.450371 166.930963l-54.840889 80.971852-33.166222-49.095111a144793.6 144793.6 0 0 1-134.200889-198.864592c-23.589926-35.119407-37.319111-76.667259-37.69837-114.024297 0.132741-111.729778 69.006222-202.960593 167.442963-221.980444 12.401778-2.389333 24.974222-3.602963 37.432889-3.602963 99.100444 0 183.978667 73.898667 201.765926 175.729778 10.410667 59.240296-1.137778 114.403556-34.285037 163.934814z m-167.139556-30.037333a108.714667 108.714667 0 0 0 108.581926-108.600889 108.73363 108.73363 0 0 0-108.581926-108.619852 108.73363 108.73363 0 0 0-108.619852 108.619852 108.73363 108.73363 0 0 0 108.619852 108.600889z m0-192.606815a84.062815 84.062815 0 0 1 83.968 84.005926 84.081778 84.081778 0 0 1-83.986963 84.005926 84.081778 84.081778 0 0 1-83.986963-84.005926 84.081778 84.081778 0 0 1 84.005926-84.005926zM454.144 0C203.832889 0 0 203.662222 0 453.973333c0 250.481778 203.832889 454.144 454.144 454.144 54.935704 0 107.747556-9.765926 156.520296-27.97037-8.609185-12.022519-17.066667-24.045037-25.524148-36.086519l-1.460148 2.446223a409.732741 409.732741 0 0 1-121.249185 20.80237v-192.284444l16.080592 0.32237c3.584 0 6.997333 0.170667 10.562371 0.32237a183.296 183.296 0 0 1-3.565037-15.758222l-22.755556-1.782518V462.582519h54.613334c2.920296-5.840593 6.181926-11.377778 9.595259-16.896h-64.208593v-195.697778l30.871704-2.446222c50.725926-2.74963 96.711111-9.102222 140.932741-19.493926l22.262518-4.228741 4.058074 13.805037a703.393185 703.393185 0 0 1 19.835259 85.674667c5.195852-1.630815 10.410667-3.26163 15.777186-4.721778a716.382815 716.382815 0 0 0-20.15763-83.380148l-4.399407-14.146371 95.421629-36.408889a413.297778 413.297778 0 0 1 76.382815 131.337482c16.421926 3.90637 32.180148 9.253926 47.464296 15.758222C837.897481 140.591407 662.016 0 454.162963 0z m-150.85037 69.233778a928.483556 928.483556 0 0 0-40.144593 82.413037l-10.391704 21.788444a145.028741 145.028741 0 0 0-6.504296 16.080593l-5.044148 13.824-14.14637-3.906371a100.408889 100.408889 0 0 1-7.471408-2.275555l-18.375111-6.97837a739.365926 739.365926 0 0 1-48.260741-18.868149 417.317926 417.317926 0 0 1 150.338371-102.077629zM216.177778 445.686519l0.493037-16.421926a758.897778 758.897778 0 0 1 30.72-191.791408l4.058074-13.501629 13.824 2.446222c2.597926 0.493037 5.195852 0.967111 8.286815 1.630815 45.188741 10.391704 90.699852 16.744296 139.453629 19.342222l32.502519 2.597926v195.697778H216.177778z m229.338074 16.896v195.546074l-32.009482 2.597926c-48.924444 2.597926-94.928593 8.931556-140.439703 19.493925l-21.617778 4.077037-4.058074-13.653333a758.897778 758.897778 0 0 1-30.72-191.81037l-0.493037-16.251259h229.338074zM140.913778 184.64237l95.421629 36.408889-4.399407 14.146371c-18.849185 61.269333-29.240889 125.155556-32.009481 195.20474l-0.644741 15.284149H40.96c1.953185-99.631407 39.329185-190.501926 99.953778-261.044149zM40.96 462.582519h158.321778l0.644741 15.113481c2.768593 70.219852 13.160296 133.935407 32.009481 195.223704l4.399407 14.127407-95.421629 36.408889A411.117037 411.117037 0 0 1 40.96 462.582519z m111.995259 274.204444c16.57363-7.149037 33.640296-13.653333 49.076148-19.171556l17.559704-6.504296c2.446222-0.967111 4.721778-1.630815 7.149037-2.446222l14.468741-4.209778 5.044148 14.127408c2.104889 6.181926 4.058074 11.377778 6.504296 16.251259l9.898667 20.650666a910.506667 910.506667 0 0 0 40.63763 83.380149 415.288889 415.288889 0 0 1-150.338371-102.07763z m293.05363 130.522074a409.903407 409.903407 0 0 1-121.419852-20.80237 754.915556 754.915556 0 0 1-61.269333-129.877334l-6.01126-16.573629 17.218371-4.228741c53.797926-12.837926 104.523852-19.493926 155.230815-20.48l16.251259-0.32237v192.284444z m0-634.235259l-16.251259-0.322371c-50.555259-0.967111-101.432889-7.642074-155.230815-20.48l-17.218371-4.22874 6.01126-16.57363a761.362963 761.362963 0 0 1 61.269333-129.85837A410.81363 410.81363 0 0 1 446.008889 40.77037v192.284445z m187.733333-20.802371c-53.797926 12.837926-104.504889 19.512889-155.230815 20.48l-16.080592 0.322371V40.789333c42.249481 0.815407 83.057778 8.135111 121.419852 20.821334a766.350222 766.350222 0 0 1 61.098666 129.85837l6.030223 16.57363-17.237334 4.22874z m72.324741-21.617777l-17.389037 6.352592c-2.427259 0.967111-4.873481 1.611852-7.319704 2.427259l-14.449778 4.228741-4.892444-14.298074a123.638519 123.638519 0 0 0-6.485333-16.099555l-10.088297-20.973037a997.034667 997.034667 0 0 0-40.466963-83.057778 415.288889 415.288889 0 0 1 150.338371 102.077629c-16.251259 6.997333-32.824889 13.330963-49.246815 19.342223z" /></svg>