<?xml version="1.0" standalone="no"?><!DOCTYPE svg PUBLIC "-//W3C//DTD SVG 1.1//EN" "http://www.w3.org/Graphics/SVG/1.1/DTD/svg11.dtd"><svg class="icon" width="200px" height="200.00px" viewBox="0 0 1024 1024" version="1.1" xmlns="http://www.w3.org/2000/svg"><path fill="#333333" d="M371.690624 737.28a330.752 330.752 0 0 1 15.616-102.4 337.92 337.92 0 0 1 43.776-88.832 347.648 347.648 0 0 1 66.816-71.68 323.072 323.072 0 0 1 84.736-51.2c2.048-4.864 3.328-9.472 6.4-17.152l4.608-13.056a61.952 61.952 0 0 1 3.328-11.52 48.128 48.128 0 0 0 16.896-10.24 65.024 65.024 0 0 0 12.8-17.664 102.4 102.4 0 0 0 7.424-31.232 92.16 92.16 0 0 0 0-25.6 59.136 59.136 0 0 0-6.144-16.384 34.816 34.816 0 0 0-10.24-11.52 685.056 685.056 0 0 0-4.608-73.216 437.248 437.248 0 0 0-15.616-66.56A180.48 180.48 0 0 0 563.178624 69.376a149.248 149.248 0 0 0-27.904-25.6 261.632 261.632 0 0 0-40.704-22.016 342.528 342.528 0 0 0-48.384-15.616 223.488 223.488 0 0 0-51.2-6.144 307.2 307.2 0 0 0-43.008 3.584A190.464 190.464 0 0 0 307.178624 15.616a195.328 195.328 0 0 0-43.776 25.6 187.904 187.904 0 0 0-39.68 40.192 190.72 190.72 0 0 0-27.904 59.648 486.4 486.4 0 0 0-13.056 62.464c-2.048 23.04-3.584 45.568-3.584 68.352a66.56 66.56 0 0 0-11.776 18.944 78.592 78.592 0 0 0-5.376 22.528 84.736 84.736 0 0 0 3.328 27.904 64.512 64.512 0 0 0 11.008 23.808 71.424 71.424 0 0 0 11.776 13.056 76.8 76.8 0 0 0 13.056 6.144c2.816 9.472 6.144 18.944 8.704 27.904a153.6 153.6 0 0 0 10.24 23.04 51.2 51.2 0 0 0 13.056 17.664c10.24 8.704 19.712 17.152 27.904 25.6A54.016 54.016 0 0 1 275.690624 512v25.6a68.608 68.608 0 0 1-4.608 22.528 82.176 82.176 0 0 1-15.104 22.528 144.128 144.128 0 0 1-29.44 23.04 179.2 179.2 0 0 1-35.584 16.896c-12.8 4.864-25.6 8.704-40.192 13.056l-40.96 12.032a194.816 194.816 0 0 0-35.328 17.92 121.6 121.6 0 0 0-27.904 25.6 81.92 81.92 0 0 0-15.104 36.608 338.432 338.432 0 0 0-4.096 96.256 71.424 71.424 0 0 0 15.104 44.8 80.64 80.64 0 0 0 25.6 8.704c13.824 2.816 30.72 6.144 51.2 8.704s42.24 6.144 66.816 8.704 49.152 5.632 73.728 7.424 49.152 3.328 72.448 4.608 43.776 2.048 61.44 2.048h24.064A364.032 364.032 0 0 1 383.978624 827.392a330.24 330.24 0 0 1-12.288-89.856z m604.16-108.544a295.424 295.424 0 0 0-61.44-91.136 286.72 286.72 0 0 0-313.856-60.928A284.928 284.928 0 0 0 509.930624 537.6a292.352 292.352 0 0 0-61.44 90.88 281.6 281.6 0 0 0 0 220.928 294.656 294.656 0 0 0 61.44 90.88 289.024 289.024 0 0 0 90.624 60.928 283.648 283.648 0 0 0 111.872 22.528 281.6 281.6 0 0 0 111.36-22.272 285.44 285.44 0 0 0 90.624-60.928 289.024 289.024 0 0 0 61.44-90.88 281.6 281.6 0 0 0 0-220.928zM791.018624 865.28a42.24 42.24 0 0 1-30.208-12.8l-85.248-86.784a43.264 43.264 0 0 1-12.544-30.464V563.2a42.496 42.496 0 0 1 85.248 0v153.6l72.704 73.728a43.52 43.52 0 0 1 0 61.184 42.24 42.24 0 0 1-29.952 12.8z" /></svg>