<?xml version="1.0" standalone="no"?><!DOCTYPE svg PUBLIC "-//W3C//DTD SVG 1.1//EN" "http://www.w3.org/Graphics/SVG/1.1/DTD/svg11.dtd"><svg class="icon" width="200px" height="200.00px" viewBox="0 0 1024 1024" version="1.1" xmlns="http://www.w3.org/2000/svg"><path fill="#ffffff" d="M921.6 102.4H768V38.4C768 17.152 750.848 0 729.6 0c-21.248 0-38.4 17.152-38.4 38.4V102.4H332.8V38.4C332.8 17.152 315.648 0 294.4 0 273.152 0 256 17.152 256 38.4V102.4H102.4A102.4 102.4 0 0 0 0 204.8v716.8A102.4 102.4 0 0 0 102.4 1024h819.2a102.4 102.4 0 0 0 102.4-102.4V204.8a102.4 102.4 0 0 0-102.4-102.4z m25.6 793.6c0 28.216889-22.983111 51.2-51.2 51.2h-768c-28.216889 0-51.2-22.983111-51.2-51.2V230.4c0-28.216889 22.983111-51.2 51.2-51.2H256v64c0 21.248 17.152 38.4 38.4 38.4 21.248 0 38.4-17.152 38.4-38.4V179.2h358.4v64c0 21.248 17.152 38.4 38.4 38.4 21.248 0 38.4-17.152 38.4-38.4V179.2h128c28.216889 0 51.2 22.983111 51.2 51.2v665.6z m-498.176-234.638222A153.429333 153.429333 0 0 0 512 537.6c0-84.792889-68.807111-153.6-153.6-153.6a153.628444 153.628444 0 0 0-153.6 153.6c0 50.858667 24.803556 95.772444 62.976 123.761778A204.714667 204.714667 0 0 0 155.534222 819.2h77.482667a128.085333 128.085333 0 0 1 125.383111-102.4 128 128 0 0 1 125.383111 102.4h77.482667a204.231111 204.231111 0 0 0-112.241778-157.838222zM358.4 614.4a76.8 76.8 0 1 1 0.028444-153.628444A76.8 76.8 0 0 1 358.4 614.4z m422.4 51.2h-76.8c-21.248 0-38.4 17.152-38.4 38.4 0 21.248 17.152 38.4 38.4 38.4h76.8c21.248 0 38.4-17.152 38.4-38.4 0-21.248-17.152-38.4-38.4-38.4z m51.2-204.8h-179.2c-21.248 0-38.4 17.152-38.4 38.4 0 21.248 17.152 38.4 38.4 38.4h179.2c21.248 0 38.4-17.152 38.4-38.4 0-21.248-17.152-38.4-38.4-38.4z" /></svg>