<?xml version="1.0" standalone="no"?><!DOCTYPE svg PUBLIC "-//W3C//DTD SVG 1.1//EN" "http://www.w3.org/Graphics/SVG/1.1/DTD/svg11.dtd"><svg class="icon" width="200px" height="200.00px" viewBox="0 0 1024 1024" version="1.1" xmlns="http://www.w3.org/2000/svg"><path fill="#333333" d="M497.21169 93.412506c-102.080933 0-184.846962 82.766029-184.846962 184.849008 0 102.094236 82.766029 184.846962 184.846962 184.846962 102.085026 0 184.850032-82.752726 184.850032-184.846962C682.059676 176.178535 599.293647 93.412506 497.21169 93.412506zM496.47798 709.681268c0 0-265.75876-296.161187-265.75876-442.931948 0-146.759505 118.987998-265.759783 265.75876-265.759783s265.759783 119.000278 265.759783 265.759783C762.237763 413.520081 496.47798 709.681268 496.47798 709.681268zM496.47798 355.335914c-48.927339 0-88.585571-39.659255-88.585571-88.584548 0-48.927339 39.662325-88.586594 88.585571-88.586594 48.927339 0 88.587618 39.659255 88.587618 88.586594C585.065598 315.675636 545.405319 355.335914 496.47798 355.335914zM864.804766 403.889747l92.213191-32.961716 0 491.182882c0 0-189.033307 56.122205-291.429419 84.908832l-357.856317-100.402711L68.615239 927.986249 68.615239 438.928774l88.572268-24.172539c-2.543939-14.811334-3.580548-52.470025-3.580548-68.242244L0.020978 381.994064l0 640.690988 51.200102-16.726963 256.265548-83.228563 358.102934 100.280938 358.38946-100.335173L1023.979022 281.933137l-154.314575 42.860157C868.663654 342.073866 868.233865 377.566218 864.804766 403.889747L864.804766 403.889747 864.804766 403.889747z" /></svg>