<?xml version="1.0" standalone="no"?><!DOCTYPE svg PUBLIC "-//W3C//DTD SVG 1.1//EN" "http://www.w3.org/Graphics/SVG/1.1/DTD/svg11.dtd"><svg class="icon" width="200px" height="193.03px" viewBox="0 0 1061 1024" version="1.1" xmlns="http://www.w3.org/2000/svg"><path fill="#333333" d="M447.122 467.332L49.24 268.162A33.501 33.501 0 0 0 0.136 300.745v441.02a33.042 33.042 0 0 0 16.062 27.994l396.965 248.275a33.96 33.96 0 0 0 17.438 5.507 33.042 33.042 0 0 0 33.043-33.042V497.162a33.042 33.042 0 0 0-16.522-29.83z m598.889-203.76a33.042 33.042 0 0 0-31.666 0l-463.507 203.76a33.042 33.042 0 0 0-19.733 30.289v493.337a33.042 33.042 0 0 0 49.563 28.453l463.048-265.255a33.042 33.042 0 0 0 16.521-28.453V291.566a33.042 33.042 0 0 0-14.226-27.994z m-54.611-84.9a33.042 33.042 0 0 0-22.487-29.83L550.838 1.53a32.583 32.583 0 0 0-19.733 0L83.659 158.021a33.042 33.042 0 0 0-4.13 61.036l397.882 199.17a33.501 33.501 0 0 0 14.685 3.213 33.96 33.96 0 0 0 13.31 0L969.37 215.845a33.042 33.042 0 0 0 22.029-37.173z" /></svg>