<?xml version="1.0" standalone="no"?><!DOCTYPE svg PUBLIC "-//W3C//DTD SVG 1.1//EN" "http://www.w3.org/Graphics/SVG/1.1/DTD/svg11.dtd"><svg class="icon" width="200px" height="199.61px" viewBox="0 0 1026 1024" version="1.1" xmlns="http://www.w3.org/2000/svg"><path fill="#ffffff" d="M767.136 955.84c-5.184 0.288-9.184 0.608-13.152 0.608-161.728 0.096-323.584 0.096-485.312 0.096-13.76 0-13.888-0.096-13.76-13.952v-34.016c0-9.6 3.968-13.504 13.888-13.504 33.824 0 67.648 0.064 101.408 0 14.144-0.064 15.424-1.632 15.424-15.232v-34.016c-0.128-12.64-3.2-15.68-15.744-15.68H60.832c-26.912 0-45.92-11.936-55.68-37.024a62.848 62.848 0 0 1-4.768-21.696c-0.192-214.752 0-429.44-0.384-644.096 0-25.024 13.504-40.704 32.192-53.152 6.496-4.256 15.648-5.12 23.744-6.176 7.424-0.992 15.232-0.288 22.944-0.288h879.2c20.96 0 39.648 5.888 52.64 22.624 8.608 10.976 15.744 22.016 15.68 38.496-0.8 213.504-0.576 427.008-0.576 640.576 0 10.432 0 19.712-8.96 28.928-6.304 6.496-9.984 16.576-18.784 21.184-8.064 4.352-17.12 9.856-25.856 10.016-53.792 1.024-107.68 0.672-161.472 0.672-52.576 0.096-105.216 0-157.728 0-12.992 0-13.312 0.352-13.408 13.472-0.064 13.44 0.576 26.976-0.224 40.384-0.544 9.92 4.672 11.232 12.32 11.232 33.312-0.16 66.528-0.096 99.648-0.096 14.464 0 15.872 1.536 15.744 15.648l0.032 44.992zM63.808 129.568c-0.352 6.56-1.024 11.648-1.024 16.768v477.888c0 17.024 0 16.928 17.056 16.928h866.272c13.824 0 16.64-2.752 16.64-16.448V144.064c0-13.6-1.056-14.528-14.688-14.528H75.264l-11.456 0.032z m374.176 241.568a50.176 50.176 0 0 1-36.224-9.888c-1.568-1.152-6.496 0.064-8.672 1.792-24.384 19.232-48.416 38.688-72.736 57.984-15.392 12.096-31.168 23.776-46.592 35.776-6.08 4.8-11.936 9.952-4.672 18.4 1.024 1.184 1.28 3.648 0.768 5.312-5.856 19.392-11.296 38.752-32.416 48.416-26.816 12.16-52.096 4.992-70.304-17.088-10.784-13.248-13.248-28.608-10.016-44.064 3.616-17.632 13.92-32.16 31.392-39.008 9.248-3.552 19.968-4.032 30.016-5.664 1.984-0.352 4.64-0.256 6.24 0.768 14.816 9.376 25.824 4.096 37.696-6.752 13.888-12.832 29.792-23.52 44.8-35.104 22.176-17.152 44.608-34.112 66.4-51.712a18.752 18.752 0 0 0 6.016-13.344 53.056 53.056 0 0 1 25.312-47.264 53.312 53.312 0 0 1 51.552-4c9.92 4.256 18.016 9.696 24.064 18.528 11.232 16.736 14.432 33.984 6.016 53.344-1.536 3.552 2.432 10.848 5.696 14.88 13.664 16.768 29.344 32.064 41.344 49.824 6.24 9.216 12.672 7.904 20.576 8.416 10.336 0.704 21.312-3.072 30.784 5.152 1.088 1.184 6.656-0.864 8.96-2.752 16.128-14.624 31.968-29.6 47.936-44.544 27.072-25.088 53.952-50.24 81.056-75.36 9.216-8.448 19.04-16.288 27.744-25.216a23.36 23.36 0 0 0 5.664-12.896c0.768-7.2-1.248-14.72-0.288-21.984 2.176-16.928 8.384-32.128 24.672-40.384 8.832-4.416 18.592-10.08 27.808-9.952 16.032 0.224 31.936 5.344 43.808 17.536 16.288 16.864 15.648 38.4 11.36 58.432-3.328 14.88-15.584 25.92-30.88 31.072-8.448 2.848-17.76 3.616-26.656 5.216-1.728 0.32-4.064 0.384-5.344-0.608-15.968-11.008-24.192 1.344-33.92 10.592-15.52 14.848-31.68 29.152-47.488 43.744-23.008 21.376-46.016 42.88-68.96 64.352-11.264 10.624-22.784 21.024-33.664 32.128a16.16 16.16 0 0 0-4.288 11.808c2.464 23.84-6.56 43.392-26.432 54.912-12.928 7.52-28.576 11.808-45.344 4.512-11.52-5.152-22.464-9.696-29.152-20.576-10.048-16-14.752-32.704-5.92-51.328 2.688-5.76 3.36-11.904-2.272-18.336-14.592-16.544-27.776-34.368-41.696-51.392a13.12 13.12 0 0 0-8.128-4.032c-5.056-0.64-10.4 0.096-15.616 0.352z m-207.648 107.104c-0.16-10.88-6.304-16.32-18.336-16.256-10.912 0.064-17.472 6.656-17.216 17.472 0.16 10.752 7.264 17.792 17.632 17.664 9.184-0.096 18.016-9.504 17.92-18.88z m581.76-256.864c-11.616-0.064-17.568 5.504-17.728 16.864-0.128 10.88 6.72 18.4 16.704 18.4 8.64 0 18.784-9.472 18.848-17.76 0.192-9.408-7.936-17.408-17.824-17.504z m-270.848 241.792c-0.256 12.608 4.128 17.6 15.424 17.76s19.52-6.88 19.648-16.864c0.064-5.984-9.248-18.688-18.048-18.464-10.88 0.288-16.768 5.92-17.024 17.568z m-87.104-146.112c-4-13.728-11.328-20.96-26.368-16.288-8.192 2.496-8.512 10.016-10.496 15.68-1.92 5.536 7.968 16.096 16.352 17.344 12.768 1.952 16.576-8.192 20.512-16.736z" /></svg>