<?xml version="1.0" standalone="no"?><!DOCTYPE svg PUBLIC "-//W3C//DTD SVG 1.1//EN" "http://www.w3.org/Graphics/SVG/1.1/DTD/svg11.dtd"><svg class="icon" width="200px" height="200.00px" viewBox="0 0 1000 1000" version="1.1" xmlns="http://www.w3.org/2000/svg"><path fill="#333333" d="M782.916267 426.001067C651.025067 142.1824 582.417067 34.3552 366.967467 38.8608c-76.765867 1.553067-58.368-55.6544-116.906667-33.962667-58.4192 21.691733-8.277333 53.4528-68.078933 102.5536-167.850667 137.847467-152.4224 265.3184-74.5472 569.173334 32.785067 128-79.086933 134.263467-34.833067 258.269866C104.942933 1025.365333 343.2448 1063.253333 594.602667 970.001067c251.426133-93.269333 409.9072-278.4256 377.565866-368.896-44.253867-124.074667-133.6832-55.6032-189.252266-175.104zM567.381333 893.559467c-224.546133 83.268267-409.053867 34.338133-416.8704 12.526933-13.4144-37.597867 72.482133-162.901333 329.181867-258.133333 256.682667-95.300267 399.991467-59.938133 414.941867-18.005334 8.874667 24.814933-102.656 180.258133-327.253334 263.611734z m-72.192-202.120534c-117.333333 43.5712-198.894933 93.371733-251.767466 138.205867 37.188267 33.774933 106.837333 42.001067 176.1792 16.264533 88.32-32.699733 142.6432-107.9296 121.1904-168.004266l-0.938667-2.065067c-14.506667 4.727467-29.371733 9.898667-44.663467 15.598933z"  /></svg>