<?xml version="1.0" standalone="no"?><!DOCTYPE svg PUBLIC "-//W3C//DTD SVG 1.1//EN" "http://www.w3.org/Graphics/SVG/1.1/DTD/svg11.dtd"><svg class="icon" width="200px" height="200.00px" viewBox="0 0 1024 1024" version="1.1" xmlns="http://www.w3.org/2000/svg"><path fill="#ffffff" d="M977.668 412.1l-54.674 53.471-149.736-148.526 54.679-53.474c16.622-16.627 42.773-19.012 57.022-4.76l98.638 96.263c13.087 14.239 10.697 40.386-5.93 57.025l0 0 0 0 0 0 0 0zM747.134 341.985l150.917 147.345-358.875 354.122c-1.191 1.186-5.967 5.948-13.078 7.13-1.177 0-1.177 0-2.386 1.186l-187.751 58.246c-4.755 1.191-10.699 1.191-14.271-2.386-3.556-3.553-4.747-8.316-2.391-14.269l59.432-184.197c0-1.167 0-1.167 1.192-2.372 1.179-5.958 5.941-13.069 8.292-14.269l68.933-62.98-228.129 0c-9.517 0-17.833-10.72-17.833-19.003 0-9.534 8.316-20.213 17.833-20.213l263.802 0 254.31-248.341zM492.824 831.569l-92.704-91.49-24.958 77.249 39.217 39.211 78.444-24.97zM742.373 400.217c-4.758-4.744-14.273-4.744-19.013 0l-281.657 275.692c-5.939 4.744-5.939 14.255 0 19.008 4.76 4.753 14.275 4.753 19.019 0l280.449-275.685c5.963-4.757 5.963-13.075 1.201-19.014l0 0 0 0 0 0 0 0zM116.112 938.528c-9.494 0-18.996-3.572-18.996-13.069l0-751.022c-1.186-17.828 10.699-14.252 23.756-14.252l65.357 0 0 24.953c0 9.513 10.688 17.828 21.389 17.828 9.517 0 21.405-8.316 21.405-17.828l0-24.953 97.44 0 0 24.953c0 9.513 10.685 17.828 21.389 17.828 9.517 0 21.405-8.316 21.405-17.828l0-24.953 89.123 0 0 24.953c0 9.513 10.688 17.828 21.394 17.828 9.527 0 21.4-8.316 21.4-17.828l0-24.953 89.129 0 0 24.953c0 9.513 10.702 17.828 21.398 17.828 9.511 0 21.398-8.316 21.398-17.828l0-24.953 74.849 0c9.516 0 15.459 4.739 15.459 14.252l0 123.59 54.679-53.469 0-70.119c0-39.216-29.714-67.729-70.138-67.729l-76.044 0 0-46.361c0-9.517-10.697-17.828-21.403-17.828-9.502 0-21.384 8.311-21.384 17.828l0 46.345-89.129 0 0-46.345c0-9.517-10.688-17.828-21.408-17.828-9.513 0-21.38 8.311-21.38 17.828l0 46.345-89.132 0 0-46.345c0-9.517-10.699-17.828-21.4-17.828-9.518 0-21.389 8.311-21.389 17.828l0 46.345-97.447 0 0-46.345c0-9.517-10.697-17.828-21.4-17.828-9.516 0-21.386 8.311-21.386 17.828l0 46.345-64.174 0c-53.471 0-79.613 28.511-79.613 67.729l0 749.833c0 39.197 35.641 67.733 76.06 67.733l589.416 0c40.402 0 70.115-28.537 70.115-67.733l0-259.061-54.669 53.469 0 206.753c0 9.525-5.944 13.083-15.445 13.083M583.125 309.913l-355.294 0c-9.516 0-16.627 11.871-16.627 20.184 0 9.513 7.13 20.203 16.627 20.203l355.294 0c9.53 0 16.641-11.889 16.641-20.203 0-8.313-7.125-20.184-16.641-20.184l0 0 0 0 0 0 0 0zM583.125 446.561l-355.294 0c-9.516 0-16.627 11.871-16.627 20.198 0 9.516 7.13 20.184 16.627 20.184l355.294 0c9.53 0 16.641-11.885 16.641-20.184 0-8.328-7.125-20.198-16.641-20.198l0 0 0 0 0 0 0 0z" /></svg>