<?xml version="1.0" standalone="no"?><!DOCTYPE svg PUBLIC "-//W3C//DTD SVG 1.1//EN" "http://www.w3.org/Graphics/SVG/1.1/DTD/svg11.dtd"><svg class="icon" width="16px" height="16.00px" viewBox="0 0 1024 1024" version="1.1" xmlns="http://www.w3.org/2000/svg"><path fill="#ffffff" d="M895.52 422.912l-0.32-5.056c-0.416-10.016-5.536-19.296-13.792-24.992l-42.144-29.088 25.92-45.472c4.928-8.672 5.568-19.104 1.696-28.288-25.888-61.472-68.352-115.104-122.752-155.008-8.192-5.984-18.752-7.744-28.384-4.736l-49.088 15.168L647.68 96.992c-3.616-9.344-11.456-16.448-21.12-19.168-65.408-18.304-131.648-18.304-197.056 0-9.664 2.72-17.504 9.792-21.152 19.136l-18.976 48.48-49.024-15.168c-9.664-3.008-20.192-1.216-28.384 4.736C257.504 174.912 215.04 228.544 189.152 290.016 185.28 299.2 185.888 309.664 190.816 318.304l25.952 45.472-42.144 29.088c-8.16 5.664-13.28 14.784-13.76 24.704l-0.288 4.672C160.256 426.4 160 430.56 160 434.752c0 61.696 15.392 122.816 44.512 176.8 4.768 8.832 13.376 14.912 23.296 16.448l50.528 7.776L274.656 686.72c-0.704 9.952 3.232 19.648 10.688 26.24 50.56 44.832 112.256 74.752 178.432 86.528C465.632 799.84 467.52 800 469.376 800c8.032 0 15.84-3.04 21.824-8.608l36.832-34.304 36.864 34.304c7.36 6.848 17.504 9.952 27.424 8.096 66.112-11.776 127.808-41.696 178.4-86.528 7.456-6.592 11.392-16.32 10.72-26.24l-3.712-50.944 50.528-7.776c9.92-1.536 18.496-7.584 23.296-16.416 29.088-53.952 44.512-115.04 44.512-176.832C896.032 430.752 895.808 426.848 895.52 422.912zM528.032 607.968C430.816 607.968 352 529.216 352 432c0-97.216 78.784-176 176.032-176 97.216 0 176 78.784 176 176C704.032 529.216 625.248 607.968 528.032 607.968zM778.272 750.656c-51.648 41.952-112.832 70.208-178.144 81.856-3.808 0.704-7.616 0.544-11.328-0.064l27.936 105.728c4.48 12.384 14.592 21.12 27.104 23.424 2.112 0.384 4.256 0.576 6.368 0.576 10.24 0 20.128-4.544 27.072-12.672l50.176-57.44 93.184 22.88c14.432 3.84 29.056-0.96 37.44-12.352 8.352-11.328 8.64-26.816-0.352-40.896L778.272 750.656zM468.32 833.024c-1.984 0-4-0.16-6.016-0.544-67.648-12.032-130.848-41.952-183.584-86.336l-81.76 117.472c-7.808 12.832-7.328 27.872 1.248 39.264 8.576 11.392 22.848 15.936 36.608 12.192l93.056-23.008 49.696 57.344c7.136 8.256 16.864 12.736 27.072 12.736 2.4 0 4.832-0.256 7.232-0.768 12.672-2.656 22.624-11.968 26.624-25.056l30.912-103.456C468.992 832.832 468.672 833.024 468.32 833.024z" /></svg>