<?xml version="1.0" standalone="no"?><!DOCTYPE svg PUBLIC "-//W3C//DTD SVG 1.1//EN" "http://www.w3.org/Graphics/SVG/1.1/DTD/svg11.dtd"><svg class="icon" width="200px" height="200.00px" viewBox="0 0 1024 1024" version="1.1" xmlns="http://www.w3.org/2000/svg"><path fill="#333333" d="M512 1024a512 512 0 1 1 512-512 512 512 0 0 1-512 512z m192-577.194667l-225.066667-178.730666a58.154667 58.154667 0 0 0-61.653333-7.296 55.125333 55.125333 0 0 0-33.194667 51.2v357.461333a55.125333 55.125333 0 0 0 33.194667 51.2 58.112 58.112 0 0 0 61.653333-7.296L704 534.613333a55.466667 55.466667 0 0 0 0-87.808z" /></svg>