<?xml version="1.0" standalone="no"?><!DOCTYPE svg PUBLIC "-//W3C//DTD SVG 1.1//EN" "http://www.w3.org/Graphics/SVG/1.1/DTD/svg11.dtd"><svg class="icon" width="16px" height="16.00px" viewBox="0 0 1024 1024" version="1.1" xmlns="http://www.w3.org/2000/svg"><path fill="#ffffff" d="M148.48 186.368q18.432-22.528 36.864-41.984 14.336-17.408 30.208-32.768t24.064-22.528q11.264-9.216 24.064-16.384t34.304-7.168l442.368 0q13.312 0 30.72 5.632t33.792 23.04q8.192 10.24 21.504 25.6t25.6 29.696q14.336 17.408 28.672 36.864l-732.16 0zM979.968 492.544q0 32.768-21.504 55.296t-61.44 22.528l-756.736 0q-38.912 0-61.952-22.528t-23.04-55.296l0-146.432q0-32.768 20.48-56.32t66.56-23.552l753.664 0q47.104 0 65.536 23.552t18.432 56.32l0 146.432zM593.92 418.816q0-13.312-6.656-18.944t-17.92-5.632l-103.424 0q-11.264 0-18.432 7.168t-7.168 17.408q1.024 13.312 7.68 19.456t17.92 6.144l103.424 0q23.552 0 24.576-25.6zM976.896 863.232q0 32.768-25.088 56.32t-64 22.528l-750.592 0q-32.768 0-58.88-23.04t-26.112-64l0-137.216q0-33.792 20.992-56.832t67.072-23.04l751.616 0q43.008 0 64 23.04t20.992 55.808l0 146.432zM590.848 790.528q0-10.24-6.656-17.408t-17.92-7.168l-103.424 0q-11.264 0-18.432 7.168t-7.168 17.408 7.168 17.408 18.432 7.168l103.424 0q11.264 0 17.92-7.168t6.656-17.408z" /></svg>