<?xml version="1.0" standalone="no"?><!DOCTYPE svg PUBLIC "-//W3C//DTD SVG 1.1//EN" "http://www.w3.org/Graphics/SVG/1.1/DTD/svg11.dtd"><svg class="icon" width="200px" height="200.00px" viewBox="0 0 1024 1024" version="1.1" xmlns="http://www.w3.org/2000/svg"><path fill="#333333" d="M898.56 168.96h-138.24v153.6h-512v-153.6H125.44c-17.92 0-30.72 17.92-30.72 35.84v762.88c0 20.48 15.36 35.84 33.28 35.84h765.44c17.92 0 33.28-15.36 33.28-35.84V204.8c0-20.48-15.36-35.84-33.28-35.84h5.12z m-125.44 302.08L473.6 839.68c2.56 5.12-5.12 5.12-10.24 2.56l-217.6-179.2c-5.12-2.56-5.12-10.24-2.56-15.36l35.84-46.08c2.56-5.12 10.24-5.12 15.36-2.56l163.84 138.24 256-317.44c2.56-7.68 10.24-7.68 15.36-2.56l40.96 35.84c7.68 2.56 10.24 7.68 2.56 17.92zM634.88 122.88V92.16c0-28.16-25.6-46.08-53.76-46.08h-156.16c-28.16 0-53.76 17.92-53.76 46.08v30.72h-61.44v153.6h386.56v-153.6h-61.44z m-130.56 92.16c-30.72 0-56.32-25.6-56.32-56.32 0-30.72 25.6-56.32 56.32-56.32 30.72 0 56.32 25.6 56.32 56.32 0 35.84-25.6 56.32-56.32 56.32z m0 0"  /></svg>