<?xml version="1.0" standalone="no"?><!DOCTYPE svg PUBLIC "-//W3C//DTD SVG 1.1//EN" "http://www.w3.org/Graphics/SVG/1.1/DTD/svg11.dtd"><svg class="icon" width="200px" height="200.00px" viewBox="0 0 1024 1024" version="1.1" xmlns="http://www.w3.org/2000/svg"><path fill="#333333" d="M231.494621 109.568v22.174897A66.736552 66.736552 0 0 0 298.372414 198.302897H725.627586a66.736552 66.736552 0 0 0 66.913104-66.56v-22.174897h89.264551A88.982069 88.982069 0 0 1 971.034483 198.302897v709.985103a88.982069 88.982069 0 0 1-89.264552 88.734897H142.230069c-23.657931 0-46.397793-9.321931-63.134897-25.988414A88.487724 88.487724 0 0 1 52.965517 908.288V198.302897a88.982069 88.982069 0 0 1 89.264552-88.734897h89.264552zM401.478621 348.513103a44.491034 44.491034 0 0 0-44.632276 44.349794 44.491034 44.491034 0 0 0 44.632276 44.385103h359.106207a44.491034 44.491034 0 0 0 44.667586-44.385103 44.491034 44.491034 0 0 0-44.632276-44.349794H401.478621z m-133.896828 0c-15.960276 0-30.68469 8.474483-38.664827 22.174897a44.137931 44.137931 0 0 0 0 44.385103 44.667586 44.667586 0 0 0 83.297103-22.210206A44.491034 44.491034 0 0 0 267.617103 348.513103z m0 177.469794c-15.960276 0-30.68469 8.474483-38.664827 22.210206a44.137931 44.137931 0 0 0 0 44.349794 44.667586 44.667586 0 0 0 83.297103-22.174897 44.491034 44.491034 0 0 0-44.632276-44.385103z m89.264552 44.385103A44.491034 44.491034 0 0 0 401.478621 614.753103h359.106207a44.491034 44.491034 0 0 0 44.667586-44.385103 44.491034 44.491034 0 0 0-44.632276-44.385103H401.478621a44.491034 44.491034 0 0 0-44.632276 44.385103z m-89.264552 133.12a44.491034 44.491034 0 0 0-44.632276 44.385103 44.491034 44.491034 0 0 0 44.632276 44.349794 44.491034 44.491034 0 0 0 44.632276-44.349794 44.491034 44.491034 0 0 0-44.632276-44.385103z m133.896828 0a44.491034 44.491034 0 0 0-44.632276 44.385103 44.491034 44.491034 0 0 0 44.632276 44.349794h359.106207a44.491034 44.491034 0 0 0 44.667586-44.349794 44.491034 44.491034 0 0 0-44.632276-44.385103H401.478621z m27.188965-635.233103A85.097931 85.097931 0 0 1 512 0a85.097931 85.097931 0 0 1 83.332414 68.254897h120.478896a51.2 51.2 0 1 1 0 102.4H308.18869a51.2 51.2 0 1 1 0-102.4h120.514207z" /></svg>