<?xml version="1.0" standalone="no"?><!DOCTYPE svg PUBLIC "-//W3C//DTD SVG 1.1//EN" "http://www.w3.org/Graphics/SVG/1.1/DTD/svg11.dtd"><svg class="icon" width="200px" height="200.00px" viewBox="0 0 1024 1024" version="1.1" xmlns="http://www.w3.org/2000/svg"><path fill="#ffffff" d="M453.818182 502.085818c-3.118545 3.933091-5.818182 25.925818-5.818182 37.632 0 35.328 28.602182 61.858909 63.976727 61.858909 35.328 0 64-25.460364 64-60.788363 0-11.706182-3.933091-38.283636-9.425454-38.283637l-112.733091-0.418909z m182.551273 0.698182c2.699636 0 3.653818 25.809455 3.653818 36.933818 0 70.702545-57.320727 125.882182-128.023273 125.882182-70.679273 0-128-54.109091-128-124.788364 0-11.147636-1.186909-38.981818 1.466182-38.981818L0 500.363636v355.072C0 926.138182 57.297455 977.454545 127.976727 977.454545h768.046546C966.725818 977.454545 1024 926.138182 1024 855.435636v-350.72l-387.630545-1.931636zM896.023273 162.909091H698.181818V87.389091C698.181818 52.061091 675.351273 23.272727 640 23.272727h-256C348.625455 23.272727 325.818182 52.061091 325.818182 87.389091V162.909091H127.976727C57.297455 162.909091 0 208.733091 0 279.412364v158.882909L1024 442.181818v-162.746182C1024 208.733091 966.725818 162.909091 896.023273 162.909091zM628.363636 162.909091H372.363636V119.412364C372.363636 101.748364 398.312727 93.090909 416 93.090909h192c17.664 0 20.363636 8.657455 20.363636 26.321455V162.909091z" /></svg>