<?xml version="1.0" standalone="no"?><!DOCTYPE svg PUBLIC "-//W3C//DTD SVG 1.1//EN" "http://www.w3.org/Graphics/SVG/1.1/DTD/svg11.dtd"><svg class="icon" width="200px" height="200.00px" viewBox="0 0 1024 1024" version="1.1" xmlns="http://www.w3.org/2000/svg"><path fill="#333333" d="M182.857143 109.714286h658.285714a73.142857 73.142857 0 0 1 73.142857 73.142857v658.285714a73.142857 73.142857 0 0 1-73.142857 73.142857H182.857143a73.142857 73.142857 0 0 1-73.142857-73.142857V182.857143a73.142857 73.142857 0 0 1 73.142857-73.142857z m90.477714 275.2l-37.924571 36.096 106.057143 116.114285L512 374.747429l-35.328-38.729143-132.644571 126.354285-70.692572-77.421714z m0 201.142857l-37.924571 36.096 106.057143 116.114286L512 575.890286l-35.328-38.729143-132.644571 126.354286-70.692572-77.421715z m288.950857-199.753143v50.249143h201.142857v-50.249143h-201.142857z m0 201.142857v50.285714h201.142857v-50.285714h-201.142857z" /></svg>