<?xml version="1.0" standalone="no"?><!DOCTYPE svg PUBLIC "-//W3C//DTD SVG 1.1//EN" "http://www.w3.org/Graphics/SVG/1.1/DTD/svg11.dtd"><svg class="icon" width="200px" height="200.00px" viewBox="0 0 1024 1024" version="1.1" xmlns="http://www.w3.org/2000/svg"><path fill="#333333" d="M566.120107 744.689596c-1.520633-0.10847-3.043313-0.272199-4.563946-0.978281-1.303692-0.597611-1.630127-1.956561-2.716878-2.826372-4.347005-1.575892-8.911974-2.825348-13.910824-2.825348-22.930245 0-41.73145 18.745946-41.73145 41.704844 0 23.039739 18.801205 41.73145 41.73145 41.73145 23.039739 0 41.73145-18.692734 41.73145-41.73145C586.659909 764.686023 578.183863 752.024655 566.120107 744.689596zM511.999488 66.875107c-245.826801 0-445.138196 199.284789-445.138196 445.138196 0 245.880013 199.311395 445.11159 445.138196 445.11159 245.825778 0 445.138196-199.230554 445.138196-445.11159C957.137685 266.159896 757.824243 66.875107 511.999488 66.875107zM656.213008 587.43404c-2.933819 0-5.434779-1.357927-8.259104-1.684362L585.355193 724.69317c17.171078 12.660344 29.125341 32.113395 29.125341 55.07127 0 38.362726-31.18935 69.553099-69.553099 69.553099s-69.553099-31.18935-69.553099-69.553099c0-38.33612 31.18935-69.52547 69.553099-69.52547 5.325285 0 10.107195 1.901303 15.106046 3.043313l61.510936-136.49779c-16.302291-9.618055-27.604708-25.267477-31.842219-44.177152l-157.472498-20.377096c-9.998725 26.137287-34.884508 44.883233-64.553225 44.883233-38.362726 0-69.553099-31.18935-69.553099-69.553099s31.18935-69.553099 69.553099-69.553099c8.694009 0 16.844643 2.010797 24.560372 4.944616l83.246983-129.188314c-12.824073-12.634762-20.974707-30.103622-20.974707-49.529043 0-38.362726 31.18935-69.553099 69.553099-69.553099s69.553099 31.18935 69.553099 69.553099-31.18935 69.553099-69.553099 69.553099c-8.911974 0-17.279548-2.010797-25.103748-5.080715l-83.137489 128.971373c12.497639 12.008498 20.104897 28.635177 20.866237 47.056736L589.376787 504.46028c6.520507-31.733749 33.254382-56.132438 66.835198-56.132438 38.362726 0 69.553099 31.190373 69.553099 69.553099C725.765083 556.243667 694.575734 587.43404 656.213008 587.43404zM524.062222 285.965987c23.039739 0 41.73145-18.71934 41.73145-41.73145s-18.692734-41.73145-41.73145-41.73145c-22.930245 0-41.73145 18.71934-41.73145 41.73145S501.131977 285.965987 524.062222 285.965987zM367.677499 445.828928c-22.931269 0-41.73145 18.745946-41.73145 41.73145s18.800181 41.73145 41.73145 41.73145c23.039739 0 41.73145-18.745946 41.73145-41.73145S390.716214 445.828928 367.677499 445.828928zM656.213008 476.149491c-22.930245 0-41.73145 18.74697-41.73145 41.73145 0 22.985504 18.801205 41.73145 41.73145 41.73145 23.039739 0 41.73145-18.745946 41.73145-41.73145C697.944458 494.89646 679.251723 476.149491 656.213008 476.149491z" /></svg>